<?xml version="1.0" encoding="iso-8859-1"?>
<!-- Generator: Adobe Illustrator 19.1.0, SVG Export Plug-In . SVG Version: 6.00 Build 0)  -->
<svg version="1.1" id="Capa_1" xmlns="http://www.w3.org/2000/svg" xmlns:xlink="http://www.w3.org/1999/xlink" x="0px" y="0px"
	 viewBox="0 0 64 64" style="enable-background:new 0 0 64 64;" xml:space="preserve">
<g>
	<g id="group-2svg">
		<path id="path-1_62_" style="fill:#EDC951;" d="M35,12.357v-0.931C35,6.798,32.352,4,27.725,4h-9.311C13.787,4,9,6.798,9,11.426
			v3.722v42.364C9,60.854,12.744,64,16.086,64h21.533h18.502C59.463,64,61,60.854,61,57.512v-36.31C61,17.86,59.463,15,56.121,15
			H38.897C37.354,15,35,13.9,35,12.357z"/>
		<path id="path-2_62_" d="M51.121,63H11.086C6.779,63,3,59.501,3,55.512V9.426C3,4.229,7.672,0,13.414,0h9.311
			C28.099,0,32,3.964,32,9.426v0.931C32,10.646,32.875,11,33.897,11h17.224C55.427,11,58,15.17,58,19.202v36.31
			C58,59.851,55.107,63,51.121,63z M13.414,3C9.849,3,6,5.457,6,9.426v46.086C6,58.08,8.685,60,11.086,60h40.035
			C53.801,60,55,57.746,55,55.512v-36.31C55,16.645,53.549,14,51.121,14H33.897C31.014,14,29,12.502,29,10.357V9.426
			C29,5.582,26.478,3,22.725,3H13.414z"/>
		<path id="path-3_61_" style="fill:#81BDA4;" d="M17,64h0.988C20.777,64,23,61.539,23,58.751V32.179V29.8
			c0-2.209,1.828-3.8,4.037-3.8h29C58.246,26,60,27.591,60,29.8v29.738C60,61.882,58.119,64,55.775,64H17L17,64z"/>
		<path id="path-4_59_" d="M50.775,63H12c-0.829,0-1.5-0.672-1.5-1.5S11.171,60,12,60h0.988C16.683,60,18,56.802,18,53.81V28.513
			C18,24.282,22.428,22,26.595,22h24.18C55.164,22,58,24.557,58,28.513v26.999C58,59.78,54.894,63,50.775,63z M19.166,60h31.609
			C53.223,60,55,58.112,55,55.512V28.513C55,25.609,52.702,25,50.775,25h-24.18C24.432,25,21,25.954,21,28.513V53.81
			C21,56.303,20.337,58.425,19.166,60z"/>
		<path id="path-5_51_" d="M38.5,47.5c-0.829,0-1.5-0.672-1.5-1.5V36c0-0.828,0.671-1.5,1.5-1.5S40,35.172,40,36v10
			C40,46.828,39.329,47.5,38.5,47.5z"/>
		<path id="path-6_46_" d="M44,43H34c-0.829,0-1.5-0.672-1.5-1.5S33.171,40,34,40h10c0.829,0,1.5,0.672,1.5,1.5S44.829,43,44,43z"/>
	</g>
</g>
<g>
</g>
<g>
</g>
<g>
</g>
<g>
</g>
<g>
</g>
<g>
</g>
<g>
</g>
<g>
</g>
<g>
</g>
<g>
</g>
<g>
</g>
<g>
</g>
<g>
</g>
<g>
</g>
<g>
</g>
</svg>
